<svg xmlns="http://www.w3.org/2000/svg" xmlns:xlink="http://www.w3.org/1999/xlink" width="392" height="100" viewBox="0 150 392 100">
<g data-name="icon" fill="#216a78" data="id:7692588" transform="translate(10.397653498544793,152.72250113360363) scale(0.9450345539954677)">

 <path d="m43.859 63.918 6.1406-6.1406 6.1406 6.1406-6.1406 6.1406z"></path>
 <path d="m29.941 50 6.1406-6.1406 6.1406 6.1406-6.1406 6.1406z"></path>
 <path d="m43.859 36.082 6.1406-6.1406 6.1406 6.1406-6.1406 6.1406z"></path>
 <path d="m91.734 56.121c0.29297-2.0117 0.45312-4.0664 0.45312-6.1211 0-2.0469-0.16016-4.1055-0.45312-6.1211l3.5273-3.5312c1.0391-1.0391 1.6094-2.418 1.6094-3.8867s-0.57031-2.8516-1.6094-3.8867c-1.8711-1.875-4.9922-2.043-7.1094-0.53906-1.2891-2.7305-2.8633-5.3086-4.707-7.707l2.0742-2.0742c1.0391-1.0391 1.6094-2.418 1.6094-3.8867s-0.57031-2.8516-1.6094-3.8867c-2.0742-2.0781-5.6992-2.0781-7.7773 0l-2.0742 2.0742c-2.3984-1.8438-4.9727-3.418-7.6992-4.7031 0.68359-0.93359 1.0664-2.0469 1.0664-3.2266 0-1.4688-0.57031-2.8516-1.6094-3.8867-2.0742-2.0781-5.6992-2.0781-7.7773 0l-3.5352 3.5352c-4.0312-0.58203-8.2109-0.58594-12.23 0l-3.5352-3.5352c-2.0742-2.0781-5.6992-2.0781-7.7773 0-1.0391 1.0391-1.6094 2.418-1.6094 3.8867 0 1.1797 0.38281 2.293 1.0664 3.2266-2.7227 1.2852-5.3008 2.8594-7.6992 4.7031l-2.0742-2.0742c-2.0742-2.0781-5.6992-2.0781-7.7773 0-1.0391 1.0391-1.6094 2.418-1.6094 3.8867s0.57031 2.8516 1.6094 3.8867l2.0742 2.0742c-1.8438 2.3984-3.4219 4.9766-4.707 7.707-2.1172-1.5039-5.2383-1.3359-7.1094 0.53906-1.0391 1.0391-1.6094 2.418-1.6094 3.8867s0.57031 2.8516 1.6094 3.8867l3.5273 3.5312c-0.29297 2.0156-0.45312 4.0742-0.45312 6.1211 0 2.0547 0.16016 4.1094 0.45312 6.1211l-3.5312 3.5312c-1.0391 1.0391-1.6094 2.418-1.6094 3.8867s0.57031 2.8516 1.6094 3.8867c1.8711 1.875 4.9922 2.043 7.1094 0.53906 1.2852 2.7266 2.8594 5.3047 4.707 7.707l-2.0742 2.0742c-1.0391 1.0391-1.6094 2.418-1.6094 3.8867s0.57031 2.8516 1.6094 3.8867c2.0742 2.0781 5.6992 2.0781 7.7773 0l2.0703-2.0703c2.3984 1.8398 4.9766 3.4141 7.6992 4.6992-0.68359 0.93359-1.0664 2.0469-1.0664 3.2266 0 1.4688 0.57031 2.8516 1.6094 3.8867 2.0742 2.0781 5.6992 2.0781 7.7773 0l3.5312-3.5273c2.0156 0.29297 4.0742 0.45312 6.1211 0.45312 2.0508 0 4.1055-0.15625 6.125-0.44922l3.5273 3.5273c1.0391 1.0391 2.418 1.6094 3.8867 1.6094s2.8516-0.57031 3.8867-1.6094c1.0391-1.0391 1.6094-2.418 1.6094-3.8867 0-1.1797-0.38281-2.293-1.0664-3.2266 2.7266-1.2852 5.3047-2.8594 7.6992-4.6992l2.0703 2.0703c2.0742 2.0781 5.6992 2.0781 7.7773 0 1.0391-1.0391 1.6094-2.418 1.6094-3.8867s-0.57031-2.8516-1.6094-3.8867l-2.0742-2.0742c1.8438-2.3984 3.4219-4.9805 4.707-7.707 2.1172 1.5039 5.2383 1.3359 7.1094-0.53516 1.0391-1.0391 1.6094-2.418 1.6094-3.8867s-0.57031-2.8516-1.6094-3.8867l-3.5312-3.5312zm-2.6719-6.1211c0 1.1016-0.054688 2.2031-0.14844 3.3008l-3.3008-3.3008 3.3008-3.3008c0.089844 1.0977 0.14844 2.1992 0.14844 3.3008zm-7.8438-23.441c1.8086 2.4023 3.332 4.9961 4.5391 7.7422l-7.9219 7.918-6.1406-6.1406 9.5234-9.5234zm-30.113 46.812c-0.30469 0.30469-0.70312 0.45703-1.1055 0.45703-0.39844 0-0.80078-0.15234-1.1055-0.45703l-8.3516-8.3516c-0.29297-0.29297-0.45703-0.69141-0.45703-1.1055 0-0.41406 0.16406-0.8125 0.45703-1.1055l8.3516-8.3516c0.60938-0.60938 1.5977-0.60938 2.2109 0l8.3516 8.3516c0.29297 0.29297 0.45703 0.69141 0.45703 1.1055 0 0.41406-0.16406 0.8125-0.45703 1.1055zm-2.2109-46.746c0.60938-0.60938 1.5977-0.60938 2.2109 0l8.3516 8.3516c0.29297 0.29297 0.45703 0.69141 0.45703 1.1055 0 0.41406-0.16406 0.8125-0.45703 1.1055l-8.3516 8.3516c-0.30469 0.30469-0.70312 0.45703-1.1055 0.45703-0.39844 0-0.80078-0.15234-1.1055-0.45703l-8.3516-8.3516c-0.29297-0.29297-0.45703-0.69141-0.45703-1.1055 0-0.41406 0.16406-0.8125 0.45703-1.1055zm-3.3594 22.27c0.60938 0.60938 0.60938 1.5977 0 2.2109l-8.3516 8.3516c-0.29297 0.29297-0.69141 0.45703-1.1055 0.45703s-0.8125-0.16406-1.1055-0.45703l-8.3516-8.3516c-0.60938-0.60938-0.60938-1.5977 0-2.2109l8.3516-8.3516c0.29297-0.29297 0.69141-0.45703 1.1055-0.45703s0.8125 0.16406 1.1055 0.45703zm8.9258 2.2109c-0.60938-0.60938-0.60938-1.5977 0-2.2109l8.3516-8.3516c0.58594-0.58594 1.625-0.58594 2.2109 0l8.3516 8.3516c0.60938 0.60938 0.60938 1.5977 0 2.2109l-8.3516 8.3516c-0.29297 0.29297-0.69141 0.45703-1.1055 0.45703-0.41406 0-0.8125-0.16406-1.1055-0.45703zm11.234-36.863c2.7461 1.207 5.3398 2.7305 7.7461 4.5391l-9.5234 9.5234-6.1406-6.1406zm-12.395-3.1562-3.3008 3.3008-3.3008-3.3008c2.1914-0.17969 4.4102-0.18359 6.6016 0zm-18.996 3.1602 7.918 7.918-6.1406 6.1406-9.5234-9.5234c2.4062-1.8086 5-3.332 7.7461-4.5391zm-6 21.836-6.1406 6.1406-7.9219-7.918c1.207-2.75 2.7305-5.3398 4.5391-7.7461zm-17.367 13.918c0-1.1016 0.054688-2.2031 0.14844-3.3008l3.3008 3.3008-3.3008 3.3008c-0.089844-1.0938-0.14844-2.1953-0.14844-3.3008zm7.8438 23.441c-1.8086-2.4062-3.332-4.9961-4.5391-7.7422l7.9219-7.918 6.1406 6.1406-9.5234 9.5234zm15.52 12.316c-2.7461-1.207-5.3398-2.7305-7.7422-4.5391l9.5234-9.5234 6.1406 6.1406zm12.398 3.1562 3.3008-3.3008 3.2969 3.2969c-2.1914 0.18359-4.4062 0.18359-6.5977 0.003906zm19-3.1562-7.9219-7.9219 6.1406-6.1406 9.5234 9.5234c-2.4023 1.8086-4.9961 3.332-7.7422 4.5391zm5.9961-21.84 6.1406-6.1406 7.918 7.918c-1.207 2.7461-2.7305 5.3398-4.5391 7.7461l-9.5234-9.5234z"></path>
 <path d="m57.777 50 6.1406-6.1406 6.1406 6.1406-6.1406 6.1406z"></path>

  <rect x="0.12120556831359863" y="0.179762601852417" width="99.7494888305664" height="99.69501495361328" fill="transparent" pointer-events="all"></rect></g><g data-name="business_name" fill="#202254" data="id:372" transform="translate(126.20657933964426,175.8486797564515) scale(1.0239273154352297)"><path d="M0.72,15.52l4.92,0l4,19.24l4.16-15.2l6.52,0l4.04,15.2l4.2-19.24l4.72,0l-5.52,24.48l-6.84,0l-3.88-15.08l-4,15.08l-7.16,0z M41.16,40l-4.8,0l0-20l4.8,0l0,20z M35.68,14.64q0-1.28,0.82-2.16t2.26-0.88t2.24,0.9t0.8,2.14q0,1.28-0.8,2.18t-2.24,0.9t-2.26-0.9t-0.82-2.18z M60.4,12l4.8,0l0,18q0,2.12-0.66,3.98t-1.96,3.24t-3.2,2.18t-4.34,0.8q-2.52,0-4.44-0.84t-3.22-2.24t-1.94-3.24t-0.64-3.84q0-2.16,0.72-4.02t2-3.24t3.08-2.18t3.92-0.8q1.92,0,3.38,0.68t2.5,1.84l0-10.32z M49.6,30q0,1.2,0.3,2.24t0.96,1.82t1.7,1.22t2.52,0.44q2.48,0,3.9-1.38t1.42-4.34t-1.42-4.34t-3.9-1.38q-1.48,0-2.52,0.44t-1.7,1.22t-0.96,1.82t-0.3,2.24z M68.84,46q0-2.96,1.8-4.66t5.2-2.14l0-3.28q-1.6-0.36-2.82-1.12t-2.06-1.8t-1.28-2.32t-0.44-2.68q0-1.68,0.64-3.18t1.84-2.62t2.94-1.76t3.98-0.64q1.6,0,2.96,0.34t2.44,0.94q0.88-0.48,1.7-0.7t1.54-0.3t1.32-0.08l1,0l0.72,0l0,4l-0.72,0q-0.64,0-1.24,0.06t-1.2,0.3q0.88,1.68,0.88,3.64q0,1.48-0.5,2.82t-1.44,2.42t-2.32,1.82t-3.14,1.02l0,3q3.76,0.36,5.78,2.08t2.02,4.84q0,3.52-2.56,5.26t-7.24,1.74t-7.24-1.74t-2.56-5.26z M74.04,28q0,1.52,1.08,2.62t3.52,1.1t3.52-1.1t1.08-2.62t-1.08-2.62t-3.52-1.1t-3.52,1.1t-1.08,2.62z M73.64,46q0,1.32,1.18,1.92t3.82,0.6t3.82-0.6t1.18-1.92t-1.18-1.92t-3.82-0.6t-3.82,0.6t-1.18,1.92z M102.12,33q-1.32,0-2.7-0.32t-2.54-0.88q0.36,1.72,1.74,2.76t4.34,1.04q0.64,0,1.48-0.06t1.72-0.14t1.68-0.22t1.36-0.34l0,4.52q-0.72,0.2-1.58,0.36t-1.74,0.28t-1.7,0.18t-1.54,0.06q-2.68,0-4.7-0.8t-3.36-2.18t-2-3.24t-0.66-3.94q0-2.16,0.68-4.02t1.98-3.26t3.2-2.2t4.34-0.8q1.84,0,3.4,0.48t2.7,1.36t1.76,2.08t0.62,2.68t-0.62,2.7t-1.74,2.08t-2.68,1.34t-3.44,0.48z M102.16,28.36q1.68,0,2.64-0.5t0.96-1.46t-0.94-1.46t-2.54-0.5q-2.12,0-3.34,0.82t-1.78,2.18q1.08,0.44,2.42,0.68t2.58,0.24z M124.2,35.72q0.6,0,1-0.06t0.8-0.14l0,4.48q-0.52,0.08-0.86,0.14t-1.1,0.06q-2.32,0-4.16-0.8t-3.14-2.18t-2-3.24t-0.7-3.98l0-14.8l4.8,0l0,5.48l6.2,0l0,4.48l-6.2,0l0,4.84q0,2.52,1.3,4.12t4.06,1.6z  M137,15.52l4.92,0l4,19.24l4.16-15.2l6.52,0l4.04,15.2l4.2-19.24l4.72,0l-5.52,24.48l-6.84,0l-3.88-15.08l-4,15.08l-7.16,0z M171.48,29.96q0-2.08,0.68-3.94t2-3.24t3.24-2.18t4.36-0.8q2.28,0,4.12,0.72t3.14,2.04t2.04,3.22t0.82,4.22q0.04,0.76,0.04,1.86t0.12,2.42t0.44,2.78t1,2.94l-4.8,0q-0.68-1.48-1-3.08q-1.04,1.52-2.64,2.4t-3.84,0.88q-2.12,0-3.92-0.8t-3.08-2.18t-2-3.24t-0.72-4.02z M181.76,24.28q-1.48,0-2.52,0.44t-1.7,1.22t-0.96,1.82t-0.3,2.24t0.3,2.24t0.96,1.82t1.7,1.22t2.52,0.44q2.48,0,3.9-1.38t1.42-4.34q-0.12-2.64-1.36-4.18t-3.96-1.54z M201.48,20.68l5.52,0l0,4.48l-5.52,0l0,14.84l-4.8,0l0-19.96q0-2.12,0.68-4t2-3.26t3.24-2.18t4.4-0.8q0.44,0,0.88,0.06t0.88,0.14l0,4.64q-0.4-0.08-0.76-0.14t-0.76-0.06q-1.64,0-2.74,0.44t-1.78,1.18t-0.96,1.76t-0.28,2.18l0,0.68z M216.76,20.68l5.52,0l0,4.48l-5.52,0l0,14.84l-4.8,0l0-19.96q0-2.12,0.68-4t2-3.26t3.24-2.18t4.4-0.8q0.44,0,0.88,0.06t0.88,0.14l0,4.64q-0.4-0.08-0.76-0.14t-0.76-0.06q-1.64,0-2.74,0.44t-1.78,1.18t-0.96,1.76t-0.28,2.18l0,0.68z M232.04,40l-4.8,0l0-28l4.8,0l0,28z M245.88,33q-1.32,0-2.7-0.32t-2.54-0.88q0.36,1.72,1.74,2.76t4.34,1.04q0.64,0,1.48-0.06t1.72-0.14t1.68-0.22t1.36-0.34l0,4.52q-0.72,0.2-1.58,0.36t-1.74,0.28t-1.7,0.18t-1.54,0.06q-2.68,0-4.7-0.8t-3.36-2.18t-2-3.24t-0.66-3.94q0-2.16,0.68-4.02t1.98-3.26t3.2-2.2t4.34-0.8q1.84,0,3.4,0.48t2.7,1.36t1.76,2.08t0.62,2.68t-0.62,2.7t-1.74,2.08t-2.68,1.34t-3.44,0.48z M245.92,28.36q1.68,0,2.64-0.5t0.96-1.46t-0.94-1.46t-2.54-0.5q-2.12,0-3.34,0.82t-1.78,2.18q1.08,0.44,2.42,0.68t2.58,0.24z"></path><rect x="-2.2800000309944153" y="6.800000190734863" width="259.6399688720703" height="49.20000457763672" fill="transparent" pointer-events="all"></rect></g></svg>
